<svg width="1280" height="640" viewBox="0 0 1280 640" fill="none" xmlns="http://www.w3.org/2000/svg">
  <rect width="1280" height="640" rx="32" fill="#020617"/>
  <rect x="48" y="48" width="1184" height="544" rx="28" fill="url(#bg)" stroke="#1E293B"/>
  <circle cx="178" cy="142" r="10" fill="#38BDF8"/>
  <circle cx="214" cy="142" r="10" fill="#22C55E"/>
  <circle cx="250" cy="142" r="10" fill="#F59E0B"/>
  <text x="96" y="220" fill="white" font-size="68" font-family="Inter, Segoe UI, Arial, sans-serif" font-weight="700">BuildFlow AI</text>
  <text x="96" y="282" fill="#CBD5E1" font-size="30" font-family="Inter, Segoe UI, Arial, sans-serif">From Idea to PRD &amp; Planning</text>
  <text x="96" y="340" fill="#94A3B8" font-size="24" font-family="Inter, Segoe UI, Arial, sans-serif">A maintainable AI agent workflow project built with Next.js, FastAPI and Playwright.</text>

  <rect x="96" y="398" width="190" height="46" rx="23" fill="#0F172A" stroke="#38BDF8"/>
  <text x="128" y="428" fill="#E2E8F0" font-size="22" font-family="Inter, Segoe UI, Arial, sans-serif">Next.js + FastAPI</text>

  <rect x="304" y="398" width="126" height="46" rx="23" fill="#0F172A" stroke="#22C55E"/>
  <text x="336" y="428" fill="#E2E8F0" font-size="22" font-family="Inter, Segoe UI, Arial, sans-serif">Mock / Real</text>

  <rect x="448" y="398" width="168" height="46" rx="23" fill="#0F172A" stroke="#A78BFA"/>
  <text x="480" y="428" fill="#E2E8F0" font-size="22" font-family="Inter, Segoe UI, Arial, sans-serif">PRD + Planning</text>

  <rect x="634" y="398" width="164" height="46" rx="23" fill="#0F172A" stroke="#F59E0B"/>
  <text x="666" y="428" fill="#E2E8F0" font-size="22" font-family="Inter, Segoe UI, Arial, sans-serif">Playwright E2E</text>

  <rect x="784" y="132" width="364" height="312" rx="28" fill="#0F172A" stroke="#1E293B"/>
  <rect x="816" y="170" width="300" height="40" rx="12" fill="#111827"/>
  <rect x="816" y="230" width="230" height="20" rx="10" fill="#1E293B"/>
  <rect x="816" y="264" width="280" height="20" rx="10" fill="#1E293B"/>
  <rect x="816" y="306" width="140" height="32" rx="10" fill="#0EA5E9"/>
  <rect x="816" y="354" width="260" height="20" rx="10" fill="#1E293B"/>
  <rect x="816" y="388" width="220" height="20" rx="10" fill="#1E293B"/>

  <text x="96" y="520" fill="#64748B" font-size="22" font-family="Inter, Segoe UI, Arial, sans-serif">Idea Input ? Clarification ? PRD ? Planning ? Export</text>

  <defs>
    <linearGradient id="bg" x1="48" y1="48" x2="1232" y2="592" gradientUnits="userSpaceOnUse">
      <stop stop-color="#020617"/>
      <stop offset="1" stop-color="#111827"/>
    </linearGradient>
  </defs>
</svg>
