<svg width="1280" height="640" viewBox="0 0 1280 640" fill="none" xmlns="http://www.w3.org/2000/svg">
  <rect width="1280" height="640" rx="32" fill="#020617"/>
  <rect x="48" y="48" width="1184" height="544" rx="28" fill="url(#bg)" stroke="#1E293B"/>

  <circle cx="178" cy="142" r="10" fill="#38BDF8"/>
  <circle cx="214" cy="142" r="10" fill="#22C55E"/>
  <circle cx="250" cy="142" r="10" fill="#F59E0B"/>

  <text x="96" y="214" fill="white" font-size="68" font-family="Inter, Segoe UI, Arial, sans-serif" font-weight="700">BuildFlow AI</text>
  <text x="96" y="276" fill="#CBD5E1" font-size="30" font-family="Inter, Segoe UI, Arial, sans-serif">From Idea to PRD, Planning, Task Breakdown &amp; Demo</text>
  <text x="96" y="334" fill="#94A3B8" font-size="24" font-family="Inter, Segoe UI, Arial, sans-serif">A maintainable AI workflow project for product managers and indie builders.</text>

  <rect x="96" y="392" width="194" height="46" rx="23" fill="#0F172A" stroke="#38BDF8"/>
  <text x="128" y="422" fill="#E2E8F0" font-size="22" font-family="Inter, Segoe UI, Arial, sans-serif">Next.js + FastAPI</text>

  <rect x="308" y="392" width="138" height="46" rx="23" fill="#0F172A" stroke="#22C55E"/>
  <text x="340" y="422" fill="#E2E8F0" font-size="22" font-family="Inter, Segoe UI, Arial, sans-serif">Mock + Bailian</text>

  <rect x="464" y="392" width="172" height="46" rx="23" fill="#0F172A" stroke="#A78BFA"/>
  <text x="496" y="422" fill="#E2E8F0" font-size="22" font-family="Inter, Segoe UI, Arial, sans-serif">Demo Studio</text>

  <rect x="654" y="392" width="176" height="46" rx="23" fill="#0F172A" stroke="#F59E0B"/>
  <text x="686" y="422" fill="#E2E8F0" font-size="22" font-family="Inter, Segoe UI, Arial, sans-serif">Playwright Shots</text>

  <rect x="802" y="124" width="346" height="334" rx="28" fill="#0F172A" stroke="#1E293B"/>
  <rect x="834" y="160" width="282" height="38" rx="12" fill="#111827"/>
  <rect x="834" y="218" width="208" height="18" rx="9" fill="#1E293B"/>
  <rect x="834" y="250" width="248" height="18" rx="9" fill="#1E293B"/>
  <rect x="834" y="288" width="144" height="34" rx="10" fill="#0EA5E9"/>
  <rect x="834" y="338" width="240" height="18" rx="9" fill="#1E293B"/>
  <rect x="834" y="370" width="214" height="18" rx="9" fill="#1E293B"/>
  <rect x="834" y="410" width="104" height="18" rx="9" fill="#22C55E"/>
  <rect x="950" y="410" width="166" height="18" rx="9" fill="#1E293B"/>

  <text x="96" y="516" fill="#64748B" font-size="22" font-family="Inter, Segoe UI, Arial, sans-serif">Idea → Clarification → PRD → Planning → Task Breakdown → Demo</text>
  <text x="96" y="552" fill="#475569" font-size="18" font-family="Inter, Segoe UI, Arial, sans-serif">Resume-ready · GitHub-ready · Demo-ready</text>

  <defs>
    <linearGradient id="bg" x1="48" y1="48" x2="1232" y2="592" gradientUnits="userSpaceOnUse">
      <stop stop-color="#020617"/>
      <stop offset="1" stop-color="#111827"/>
    </linearGradient>
  </defs>
</svg>
